# xmcd
#
# Track frame offsets:
#	150
#	14152
#	21270
#	33062
#	38664
#	49800
#	64581
#	74368
#	88289
#	95755
#	106239
#	114846
#
# Disc length: 1765 seconds
#
# Revision: 0
# Processed by: cddbd v1.5.1PL0 Copyright (c) Steve Scherf et al.
# Submitted via: dBpowerAMP V4.0
#
DISCID=9b06e30c
DTITLE=Various Artist - O'Bluegrass Disc One
DYEAR=2002
DGENRE=Bluegrass
TTITLE0=Larry Cordle and Lonesome Standard Time - You Don't Know My Mind
TTITLE1=Jimmy Martin - We'll Meet Again, Sweetheart
TTITLE2=Flatt and Scruggs - Have a Feast Here Tonight
TTITLE3=Grandpa Jones - Eight More Miles to Louisville
TTITLE4=Mac Wiseman - Footprints in the Snow
TTITLE5=Larry Cordle and Lonesome Standard Time - Drink Up and Go Home
TTITLE6=June Carter - Gotta Travel On
TTITLE7=Larry Cordle and Lonesome Standard Time - Sophronie
TTITLE8=Stringbean - Georgia Rose
TTITLE9=Jimmy Martin - Hit Parade of Love
TTITLE10=Flatt and Scruggs - Salty Dog Blues
TTITLE11=Randy Howard and Bela Fleck - Georgia Camp Meeting
EXTD=(c) 2002 Madacy Entertainment Group, Inc
EXTT0=
EXTT1=
EXTT2=
EXTT3=
EXTT4=
EXTT5=
EXTT6=
EXTT7=
EXTT8=
EXTT9=
EXTT10=
EXTT11=
PLAYORDER=
